<svg xmlns="http://www.w3.org/2000/svg" xmlns:xlink="http://www.w3.org/1999/xlink" xmlns:s="https://github.com/nturley/netlistsvg" width="1136" height="1457">
  <style>svg {
    stroke:#000;
    fill:none;
  }
  text {
    fill:#000;
    stroke:none;
    font-size:10px;
    font-weight: bold;
    font-family: "Courier New", monospace;
  }
  .nodelabel {
    text-anchor: middle;
  }
  .inputPortLabel {
    text-anchor: end;
  }
  .splitjoinBody {
    fill:#000;
  }</style>
  <g s:type="generic" transform="translate(980,22)" s:width="30" s:height="40" id="cell_$display$rtl/ram.sv:24$6">
    <text x="15" y="-4" class="nodelabel cell_$display$rtl/ram.sv:24$6" s:attribute="ref">$print</text>
    <rect width="30" height="60" s:generic="body" class="cell_$display$rtl/ram.sv:24$6"/>
    <g transform="translate(0,10)" s:x="0" s:y="10" s:pid="in0" id="port_$display$rtl/ram.sv:24$6~ARGS">
      <text x="-3" y="-4" class="inputPortLabel cell_$display$rtl/ram.sv:24$6">ARGS</text>
    </g>
    <g transform="translate(0,30)" s:x="0" s:y="10" s:pid="in0" id="port_$display$rtl/ram.sv:24$6~EN">
      <text x="-3" y="-4" class="inputPortLabel cell_$display$rtl/ram.sv:24$6">EN</text>
    </g>
    <g transform="translate(0,50)" s:x="0" s:y="10" s:pid="in0" id="port_$display$rtl/ram.sv:24$6~TRG">
      <text x="-3" y="-4" class="inputPortLabel cell_$display$rtl/ram.sv:24$6">TRG</text>
    </g>
  </g>
  <g s:type="generic" transform="translate(980,1274)" s:width="30" s:height="40" id="cell_$display$rtl/ram.sv:25$7">
    <text x="15" y="-4" class="nodelabel cell_$display$rtl/ram.sv:25$7" s:attribute="ref">$print</text>
    <rect width="30" height="60" s:generic="body" class="cell_$display$rtl/ram.sv:25$7"/>
    <g transform="translate(0,10)" s:x="0" s:y="10" s:pid="in0" id="port_$display$rtl/ram.sv:25$7~ARGS">
      <text x="-3" y="-4" class="inputPortLabel cell_$display$rtl/ram.sv:25$7">ARGS</text>
    </g>
    <g transform="translate(0,30)" s:x="0" s:y="10" s:pid="in0" id="port_$display$rtl/ram.sv:25$7~EN">
      <text x="-3" y="-4" class="inputPortLabel cell_$display$rtl/ram.sv:25$7">EN</text>
    </g>
    <g transform="translate(0,50)" s:x="0" s:y="10" s:pid="in0" id="port_$display$rtl/ram.sv:25$7~TRG">
      <text x="-3" y="-4" class="inputPortLabel cell_$display$rtl/ram.sv:25$7">TRG</text>
    </g>
  </g>
  <g s:type="generic" transform="translate(980,1382)" s:width="30" s:height="40" id="cell_$display$rtl/ram.sv:26$8">
    <text x="15" y="-4" class="nodelabel cell_$display$rtl/ram.sv:26$8" s:attribute="ref">$print</text>
    <rect width="30" height="60" s:generic="body" class="cell_$display$rtl/ram.sv:26$8"/>
    <g transform="translate(0,10)" s:x="0" s:y="10" s:pid="in0" id="port_$display$rtl/ram.sv:26$8~ARGS">
      <text x="-3" y="-4" class="inputPortLabel cell_$display$rtl/ram.sv:26$8">ARGS</text>
    </g>
    <g transform="translate(0,30)" s:x="0" s:y="10" s:pid="in0" id="port_$display$rtl/ram.sv:26$8~EN">
      <text x="-3" y="-4" class="inputPortLabel cell_$display$rtl/ram.sv:26$8">EN</text>
    </g>
    <g transform="translate(0,50)" s:x="0" s:y="10" s:pid="in0" id="port_$display$rtl/ram.sv:26$8~TRG">
      <text x="-3" y="-4" class="inputPortLabel cell_$display$rtl/ram.sv:26$8">TRG</text>
    </g>
  </g>
  <g s:type="generic" transform="translate(980,1166)" s:width="30" s:height="40" id="cell_$display$rtl/ram.sv:27$9">
    <text x="15" y="-4" class="nodelabel cell_$display$rtl/ram.sv:27$9" s:attribute="ref">$print</text>
    <rect width="30" height="60" s:generic="body" class="cell_$display$rtl/ram.sv:27$9"/>
    <g transform="translate(0,10)" s:x="0" s:y="10" s:pid="in0" id="port_$display$rtl/ram.sv:27$9~ARGS">
      <text x="-3" y="-4" class="inputPortLabel cell_$display$rtl/ram.sv:27$9">ARGS</text>
    </g>
    <g transform="translate(0,30)" s:x="0" s:y="10" s:pid="in0" id="port_$display$rtl/ram.sv:27$9~EN">
      <text x="-3" y="-4" class="inputPortLabel cell_$display$rtl/ram.sv:27$9">EN</text>
    </g>
    <g transform="translate(0,50)" s:x="0" s:y="10" s:pid="in0" id="port_$display$rtl/ram.sv:27$9~TRG">
      <text x="-3" y="-4" class="inputPortLabel cell_$display$rtl/ram.sv:27$9">TRG</text>
    </g>
  </g>
  <g s:type="dff" transform="translate(885,1101)" s:width="30" s:height="40" id="cell_$procdff$164">
    <s:alias val="$dff"/>
    <s:alias val="$_DFF_"/>
    <s:alias val="$_DFF_P_"/>
    <rect width="30" height="40" x="0" y="0" class="cell_$procdff$164"/>
    <path d="M0,35 L5,30 L0,25" class="cell_$procdff$164"/>
    <g s:x="30" s:y="10" s:pid="Q"/>
    <g s:x="0" s:y="30" s:pid="CLK"/>
    <g s:x="0" s:y="30" s:pid="C"/>
    <g s:x="0" s:y="10" s:pid="D"/>
  </g>
  <g s:type="mux" transform="translate(427.3333333333333,1014)" s:width="20" s:height="40" id="cell_$procmux$129">
    <s:alias val="$pmux"/>
    <s:alias val="$mux"/>
    <s:alias val="$_MUX_"/>
    <path d="M0,0 L20,10 L20,30 L0,40 Z" class="cell_$procmux$129"/>
    <g s:x="0" s:y="10" s:pid="A"/>
    <g s:x="0" s:y="30" s:pid="B"/>
    <g s:x="10" s:y="35" s:pid="S"/>
    <g s:x="20" s:y="20" s:pid="Y"/>
  </g>
  <g s:type="mux" transform="translate(516.3333333333333,277)" s:width="20" s:height="40" id="cell_$procmux$132">
    <s:alias val="$pmux"/>
    <s:alias val="$mux"/>
    <s:alias val="$_MUX_"/>
    <path d="M0,0 L20,10 L20,30 L0,40 Z" class="cell_$procmux$132"/>
    <g s:x="0" s:y="10" s:pid="A"/>
    <g s:x="0" s:y="30" s:pid="B"/>
    <g s:x="10" s:y="35" s:pid="S"/>
    <g s:x="20" s:y="20" s:pid="Y"/>
  </g>
  <g s:type="mux" transform="translate(516.3333333333333,176)" s:width="20" s:height="40" id="cell_$procmux$135">
    <s:alias val="$pmux"/>
    <s:alias val="$mux"/>
    <s:alias val="$_MUX_"/>
    <path d="M0,0 L20,10 L20,30 L0,40 Z" class="cell_$procmux$135"/>
    <g s:x="0" s:y="10" s:pid="A"/>
    <g s:x="0" s:y="30" s:pid="B"/>
    <g s:x="10" s:y="35" s:pid="S"/>
    <g s:x="20" s:y="20" s:pid="Y"/>
  </g>
  <g s:type="mux" transform="translate(775,1101)" s:width="20" s:height="40" id="cell_$procmux$52">
    <s:alias val="$pmux"/>
    <s:alias val="$mux"/>
    <s:alias val="$_MUX_"/>
    <path d="M0,0 L20,10 L20,30 L0,40 Z" class="cell_$procmux$52"/>
    <g s:x="0" s:y="10" s:pid="A"/>
    <g s:x="0" s:y="30" s:pid="B"/>
    <g s:x="10" s:y="35" s:pid="S"/>
    <g s:x="20" s:y="20" s:pid="Y"/>
  </g>
  <g s:type="mux" transform="translate(830,1091)" s:width="20" s:height="40" id="cell_$procmux$54">
    <s:alias val="$pmux"/>
    <s:alias val="$mux"/>
    <s:alias val="$_MUX_"/>
    <path d="M0,0 L20,10 L20,30 L0,40 Z" class="cell_$procmux$54"/>
    <g s:x="0" s:y="10" s:pid="A"/>
    <g s:x="0" s:y="30" s:pid="B"/>
    <g s:x="10" s:y="35" s:pid="S"/>
    <g s:x="20" s:y="20" s:pid="Y"/>
  </g>
  <g s:type="mux" transform="translate(352.6666666666667,944)" s:width="20" s:height="40" id="cell_$procmux$58">
    <s:alias val="$pmux"/>
    <s:alias val="$mux"/>
    <s:alias val="$_MUX_"/>
    <path d="M0,0 L20,10 L20,30 L0,40 Z" class="cell_$procmux$58"/>
    <g s:x="0" s:y="10" s:pid="A"/>
    <g s:x="0" s:y="30" s:pid="B"/>
    <g s:x="10" s:y="35" s:pid="S"/>
    <g s:x="20" s:y="20" s:pid="Y"/>
  </g>
  <g s:type="mux" transform="translate(427.3333333333333,287)" s:width="20" s:height="40" id="cell_$procmux$64">
    <s:alias val="$pmux"/>
    <s:alias val="$mux"/>
    <s:alias val="$_MUX_"/>
    <path d="M0,0 L20,10 L20,30 L0,40 Z" class="cell_$procmux$64"/>
    <g s:x="0" s:y="10" s:pid="A"/>
    <g s:x="0" s:y="30" s:pid="B"/>
    <g s:x="10" s:y="35" s:pid="S"/>
    <g s:x="20" s:y="20" s:pid="Y"/>
  </g>
  <g s:type="mux" transform="translate(427.3333333333333,186)" s:width="20" s:height="40" id="cell_$procmux$70">
    <s:alias val="$pmux"/>
    <s:alias val="$mux"/>
    <s:alias val="$_MUX_"/>
    <path d="M0,0 L20,10 L20,30 L0,40 Z" class="cell_$procmux$70"/>
    <g s:x="0" s:y="10" s:pid="A"/>
    <g s:x="0" s:y="30" s:pid="B"/>
    <g s:x="10" s:y="35" s:pid="S"/>
    <g s:x="20" s:y="20" s:pid="Y"/>
  </g>
  <g s:type="generic" transform="translate(666,333.5)" s:width="30" s:height="40" id="cell_mem_d">
    <text x="15" y="-4" class="nodelabel cell_mem_d" s:attribute="ref">$mem_v2</text>
    <rect width="30" height="180" s:generic="body" class="cell_mem_d"/>
    <g transform="translate(0,10)" s:x="0" s:y="10" s:pid="in0" id="port_mem_d~RD_ADDR">
      <text x="-3" y="-4" class="inputPortLabel cell_mem_d">RD_ADDR</text>
    </g>
    <g transform="translate(0,30)" s:x="0" s:y="10" s:pid="in0" id="port_mem_d~RD_ARST">
      <text x="-3" y="-4" class="inputPortLabel cell_mem_d">RD_ARST</text>
    </g>
    <g transform="translate(0,50)" s:x="0" s:y="10" s:pid="in0" id="port_mem_d~RD_CLK">
      <text x="-3" y="-4" class="inputPortLabel cell_mem_d">RD_CLK</text>
    </g>
    <g transform="translate(0,70)" s:x="0" s:y="10" s:pid="in0" id="port_mem_d~RD_EN">
      <text x="-3" y="-4" class="inputPortLabel cell_mem_d">RD_EN</text>
    </g>
    <g transform="translate(0,90)" s:x="0" s:y="10" s:pid="in0" id="port_mem_d~RD_SRST">
      <text x="-3" y="-4" class="inputPortLabel cell_mem_d">RD_SRST</text>
    </g>
    <g transform="translate(0,110)" s:x="0" s:y="10" s:pid="in0" id="port_mem_d~WR_ADDR">
      <text x="-3" y="-4" class="inputPortLabel cell_mem_d">WR_ADDR</text>
    </g>
    <g transform="translate(0,130)" s:x="0" s:y="10" s:pid="in0" id="port_mem_d~WR_CLK">
      <text x="-3" y="-4" class="inputPortLabel cell_mem_d">WR_CLK</text>
    </g>
    <g transform="translate(0,150)" s:x="0" s:y="10" s:pid="in0" id="port_mem_d~WR_DATA">
      <text x="-3" y="-4" class="inputPortLabel cell_mem_d">WR_DATA</text>
    </g>
    <g transform="translate(0,170)" s:x="0" s:y="10" s:pid="in0" id="port_mem_d~WR_EN">
      <text x="-3" y="-4" class="inputPortLabel cell_mem_d">WR_EN</text>
    </g>
    <g transform="translate(30,10)" s:x="30" s:y="10" s:pid="out0" id="port_mem_d~RD_DATA">
      <text x="5" y="-4" style="fill:#000; stroke:none" class="cell_mem_d">RD_DATA</text>
    </g>
  </g>
  <g s:type="inputExt" transform="translate(513,411.5)" s:width="30" s:height="20" id="cell_clk">
    <text x="15" y="-4" class="nodelabel cell_clk" s:attribute="ref">clk</text>
    <s:alias val="$_inputExt_"/>
    <path d="M0,0 L0,20 L15,20 L30,10 L15,0 Z" class="cell_clk"/>
    <g s:x="28" s:y="10" s:pid="Y"/>
  </g>
  <g s:type="inputExt" transform="translate(341,381.5)" s:width="30" s:height="20" id="cell_clk_en">
    <text x="15" y="-4" class="nodelabel cell_clk_en" s:attribute="ref">clk_en</text>
    <s:alias val="$_inputExt_"/>
    <path d="M0,0 L0,20 L15,20 L30,10 L15,0 Z" class="cell_clk_en"/>
    <g s:x="28" s:y="10" s:pid="Y"/>
  </g>
  <g s:type="inputExt" transform="translate(12,22)" s:width="30" s:height="20" id="cell_rst">
    <text x="15" y="-4" class="nodelabel cell_rst" s:attribute="ref">rst</text>
    <s:alias val="$_inputExt_"/>
    <path d="M0,0 L0,20 L15,20 L30,10 L15,0 Z" class="cell_rst"/>
    <g s:x="28" s:y="10" s:pid="Y"/>
  </g>
  <g s:type="inputExt" transform="translate(662,1294.5)" s:width="30" s:height="20" id="cell_i_read_enable">
    <text x="15" y="-4" class="nodelabel cell_i_read_enable" s:attribute="ref">i_read_enable</text>
    <s:alias val="$_inputExt_"/>
    <path d="M0,0 L0,20 L15,20 L30,10 L15,0 Z" class="cell_i_read_enable"/>
    <g s:x="28" s:y="10" s:pid="Y"/>
  </g>
  <g s:type="inputExt" transform="translate(412,53.5)" s:width="30" s:height="20" id="cell_i_read_addr">
    <text x="15" y="-4" class="nodelabel cell_i_read_addr" s:attribute="ref">i_read_addr</text>
    <s:alias val="$_inputExt_"/>
    <path d="M0,0 L0,20 L15,20 L30,10 L15,0 Z" class="cell_i_read_addr"/>
    <g s:x="28" s:y="10" s:pid="Y"/>
  </g>
  <g s:type="outputExt" transform="translate(980,1101)" s:width="30" s:height="20" id="cell_o_read_data">
    <text x="15" y="-4" class="nodelabel cell_o_read_data" s:attribute="ref">o_read_data</text>
    <s:alias val="$_outputExt_"/>
    <path d="M30,0 L30,20 L15,20 L0,10 L15,0 Z" class="cell_o_read_data"/>
    <g s:x="0" s:y="10" s:pid="A"/>
  </g>
  <g s:type="inputExt" transform="translate(90,1233.5)" s:width="30" s:height="20" id="cell_i_write_enable">
    <text x="15" y="-4" class="nodelabel cell_i_write_enable" s:attribute="ref">i_write_enable</text>
    <s:alias val="$_inputExt_"/>
    <path d="M0,0 L0,20 L15,20 L30,10 L15,0 Z" class="cell_i_write_enable"/>
    <g s:x="28" s:y="10" s:pid="Y"/>
  </g>
  <g s:type="inputExt" transform="translate(209,1382.5)" s:width="30" s:height="20" id="cell_i_write_addr">
    <text x="15" y="-4" class="nodelabel cell_i_write_addr" s:attribute="ref">i_write_addr</text>
    <s:alias val="$_inputExt_"/>
    <path d="M0,0 L0,20 L15,20 L30,10 L15,0 Z" class="cell_i_write_addr"/>
    <g s:x="28" s:y="10" s:pid="Y"/>
  </g>
  <g s:type="inputExt" transform="translate(90,119.5)" s:width="30" s:height="20" id="cell_i_write_data">
    <text x="15" y="-4" class="nodelabel cell_i_write_data" s:attribute="ref">i_write_data</text>
    <s:alias val="$_inputExt_"/>
    <path d="M0,0 L0,20 L15,20 L30,10 L15,0 Z" class="cell_i_write_data"/>
    <g s:x="28" s:y="10" s:pid="Y"/>
  </g>
  <g s:type="constant" transform="translate(209,1263.5)" s:width="30" s:height="20" id="cell_1">
    <text x="15" y="-4" class="nodelabel cell_1" s:attribute="ref">1</text>
    <s:alias val="$_constant_"/>
    <rect width="30" height="20" class="cell_1"/>
    <g s:x="30" s:y="10" s:pid="Y"/>
  </g>
  <g s:type="constant" transform="translate(209,149.5)" s:width="30" s:height="20" id="cell_0">
    <text x="15" y="-4" class="nodelabel cell_0" s:attribute="ref">0</text>
    <s:alias val="$_constant_"/>
    <rect width="30" height="20" class="cell_0"/>
    <g s:x="30" s:y="10" s:pid="Y"/>
  </g>
  <g s:type="constant" transform="translate(209,317)" s:width="30" s:height="20" id="cell_000000000000000000000000">
    <text x="15" y="-4" class="nodelabel cell_000000000000000000000000" s:attribute="ref">0x0</text>
    <s:alias val="$_constant_"/>
    <rect width="30" height="20" class="cell_000000000000000000000000"/>
    <g s:x="30" s:y="10" s:pid="Y"/>
  </g>
  <g s:type="join" transform="translate(360,296.5)" s:width="4" s:height="40" id="cell_$join$,130,131,132,133,134,135,136,137,317,318,319,320,321,322,323,324,325,326,327,328,329,330,331,332,333,334,335,336,337,338,339,340,">
    <rect width="5" height="40" class="splitjoinBody" s:generic="body"/>
    <s:alias val="$_join_"/>
    <g s:x="5" s:y="20" s:pid="out"/>
    <g transform="translate(0,10)" s:x="0" s:y="10" s:pid="in0">
      <text x="-3" y="-4" class="inputPortLabel">0:7</text>
    </g>
    <g transform="translate(0,30)" s:x="0" s:y="10" s:pid="in0">
      <text x="-3" y="-4" class="inputPortLabel">8:31</text>
    </g>
  </g>
  <g s:type="join" transform="translate(514.04,483.5)" s:width="4" s:height="40" id="cell_$join$,171,171,171,171,171,171,171,171,171,171,171,171,171,171,171,171,171,171,171,171,171,171,171,171,171,171,171,171,171,171,171,171,">
    <rect width="5" height="640" class="splitjoinBody" s:generic="body"/>
    <s:alias val="$_join_"/>
    <g s:x="5" s:y="20" s:pid="out"/>
    <g transform="translate(0,10)" s:x="0" s:y="10" s:pid="in0">
      <text x="-3" y="-4" class="inputPortLabel">0</text>
    </g>
    <g transform="translate(0,30)" s:x="0" s:y="10" s:pid="in0">
      <text x="-3" y="-4" class="inputPortLabel">1</text>
    </g>
    <g transform="translate(0,50)" s:x="0" s:y="10" s:pid="in0">
      <text x="-3" y="-4" class="inputPortLabel">2</text>
    </g>
    <g transform="translate(0,70)" s:x="0" s:y="10" s:pid="in0">
      <text x="-3" y="-4" class="inputPortLabel">3</text>
    </g>
    <g transform="translate(0,90)" s:x="0" s:y="10" s:pid="in0">
      <text x="-3" y="-4" class="inputPortLabel">4</text>
    </g>
    <g transform="translate(0,110)" s:x="0" s:y="10" s:pid="in0">
      <text x="-3" y="-4" class="inputPortLabel">5</text>
    </g>
    <g transform="translate(0,130)" s:x="0" s:y="10" s:pid="in0">
      <text x="-3" y="-4" class="inputPortLabel">6</text>
    </g>
    <g transform="translate(0,150)" s:x="0" s:y="10" s:pid="in0">
      <text x="-3" y="-4" class="inputPortLabel">7</text>
    </g>
    <g transform="translate(0,170)" s:x="0" s:y="10" s:pid="in0">
      <text x="-3" y="-4" class="inputPortLabel">8</text>
    </g>
    <g transform="translate(0,190)" s:x="0" s:y="10" s:pid="in0">
      <text x="-3" y="-4" class="inputPortLabel">9</text>
    </g>
    <g transform="translate(0,210)" s:x="0" s:y="10" s:pid="in0">
      <text x="-3" y="-4" class="inputPortLabel">10</text>
    </g>
    <g transform="translate(0,230)" s:x="0" s:y="10" s:pid="in0">
      <text x="-3" y="-4" class="inputPortLabel">11</text>
    </g>
    <g transform="translate(0,250)" s:x="0" s:y="10" s:pid="in0">
      <text x="-3" y="-4" class="inputPortLabel">12</text>
    </g>
    <g transform="translate(0,270)" s:x="0" s:y="10" s:pid="in0">
      <text x="-3" y="-4" class="inputPortLabel">13</text>
    </g>
    <g transform="translate(0,290)" s:x="0" s:y="10" s:pid="in0">
      <text x="-3" y="-4" class="inputPortLabel">14</text>
    </g>
    <g transform="translate(0,310)" s:x="0" s:y="10" s:pid="in0">
      <text x="-3" y="-4" class="inputPortLabel">15</text>
    </g>
    <g transform="translate(0,330)" s:x="0" s:y="10" s:pid="in0">
      <text x="-3" y="-4" class="inputPortLabel">16</text>
    </g>
    <g transform="translate(0,350)" s:x="0" s:y="10" s:pid="in0">
      <text x="-3" y="-4" class="inputPortLabel">17</text>
    </g>
    <g transform="translate(0,370)" s:x="0" s:y="10" s:pid="in0">
      <text x="-3" y="-4" class="inputPortLabel">18</text>
    </g>
    <g transform="translate(0,390)" s:x="0" s:y="10" s:pid="in0">
      <text x="-3" y="-4" class="inputPortLabel">19</text>
    </g>
    <g transform="translate(0,410)" s:x="0" s:y="10" s:pid="in0">
      <text x="-3" y="-4" class="inputPortLabel">20</text>
    </g>
    <g transform="translate(0,430)" s:x="0" s:y="10" s:pid="in0">
      <text x="-3" y="-4" class="inputPortLabel">21</text>
    </g>
    <g transform="translate(0,450)" s:x="0" s:y="10" s:pid="in0">
      <text x="-3" y="-4" class="inputPortLabel">22</text>
    </g>
    <g transform="translate(0,470)" s:x="0" s:y="10" s:pid="in0">
      <text x="-3" y="-4" class="inputPortLabel">23</text>
    </g>
    <g transform="translate(0,490)" s:x="0" s:y="10" s:pid="in0">
      <text x="-3" y="-4" class="inputPortLabel">24</text>
    </g>
    <g transform="translate(0,510)" s:x="0" s:y="10" s:pid="in0">
      <text x="-3" y="-4" class="inputPortLabel">25</text>
    </g>
    <g transform="translate(0,530)" s:x="0" s:y="10" s:pid="in0">
      <text x="-3" y="-4" class="inputPortLabel">26</text>
    </g>
    <g transform="translate(0,550)" s:x="0" s:y="10" s:pid="in0">
      <text x="-3" y="-4" class="inputPortLabel">27</text>
    </g>
    <g transform="translate(0,570)" s:x="0" s:y="10" s:pid="in0">
      <text x="-3" y="-4" class="inputPortLabel">28</text>
    </g>
    <g transform="translate(0,590)" s:x="0" s:y="10" s:pid="in0">
      <text x="-3" y="-4" class="inputPortLabel">29</text>
    </g>
    <g transform="translate(0,610)" s:x="0" s:y="10" s:pid="in0">
      <text x="-3" y="-4" class="inputPortLabel">30</text>
    </g>
    <g transform="translate(0,630)" s:x="0" s:y="10" s:pid="in0">
      <text x="-3" y="-4" class="inputPortLabel">31</text>
    </g>
  </g>
  <g s:type="split" transform="translate(54,14)" s:width="5" s:height="40" id="cell_$split$,x,x,x,x,x,x,x,x,x,x,x,x,x,x,x,x,x,x,x,x,x,x,x,x,x,x,x,x,x,x,x,x,">
    <rect width="5" height="40" class="splitjoinBody" s:generic="body"/>
    <s:alias val="$_split_"/>
    <g s:x="0" s:y="20" s:pid="in"/>
    <g transform="translate(4,10)" s:x="4" s:y="10" s:pid="out0">
      <text x="5" y="-4">0:4</text>
    </g>
    <g transform="translate(4,30)" s:x="4" s:y="10" s:pid="out0">
      <text x="5" y="-4">0</text>
    </g>
  </g>
  <g s:type="split" transform="translate(234,983.5)" s:width="5" s:height="40" id="cell_$split$,70,71,72,73,">
    <rect width="5" height="20" class="splitjoinBody" s:generic="body"/>
    <s:alias val="$_split_"/>
    <g s:x="0" s:y="20" s:pid="in"/>
    <g transform="translate(4,10)" s:x="4" s:y="10" s:pid="out0">
      <text x="5" y="-4">3</text>
    </g>
  </g>
  <g s:type="split" transform="translate(234,96.5)" s:width="5" s:height="40" id="cell_$split$,106,107,108,109,110,111,112,113,114,115,116,117,118,119,120,121,122,123,124,125,126,127,128,129,130,131,132,133,134,135,136,137,">
    <rect width="5" height="20" class="splitjoinBody" s:generic="body"/>
    <s:alias val="$_split_"/>
    <g s:x="0" s:y="20" s:pid="in"/>
    <g transform="translate(4,10)" s:x="4" s:y="10" s:pid="out0">
      <text x="5" y="-4">24:31</text>
    </g>
  </g>
  <g s:type="split" transform="translate(353,205.5)" s:width="5" s:height="40" id="cell_$split$,74,75,76,77,78,79,80,81,82,83,84,85,86,87,88,89,90,91,92,93,94,95,96,97,98,99,100,101,102,103,104,105,">
    <rect width="5" height="20" class="splitjoinBody" s:generic="body"/>
    <s:alias val="$_split_"/>
    <g s:x="0" s:y="20" s:pid="in"/>
    <g transform="translate(4,10)" s:x="4" s:y="10" s:pid="out0">
      <text x="5" y="-4">0:4</text>
    </g>
  </g>
  <g s:type="split" transform="translate(519,94.5)" s:width="5" s:height="40" id="cell_$split$,6,7,8,9,10,11,12,13,14,15,16,17,18,19,20,21,22,23,24,25,26,27,28,29,30,31,32,33,34,35,36,37,">
    <rect width="5" height="20" class="splitjoinBody" s:generic="body"/>
    <s:alias val="$_split_"/>
    <g s:x="0" s:y="20" s:pid="in"/>
    <g transform="translate(4,10)" s:x="4" s:y="10" s:pid="out0">
      <text x="5" y="-4">0:4</text>
    </g>
  </g>
  <line x1="440" x2="488" y1="63.5" y2="63.5" class="net_6,7,8,9,10,11,12,13,14,15,16,17,18,19,20,21,22,23,24,25,26,27,28,29,30,31,32,33,34,35,36,37"/>
  <line x1="488" x2="488" y1="63.5" y2="21.5" class="net_6,7,8,9,10,11,12,13,14,15,16,17,18,19,20,21,22,23,24,25,26,27,28,29,30,31,32,33,34,35,36,37"/>
  <line x1="488" x2="935" y1="21.5" y2="21.5" class="net_6,7,8,9,10,11,12,13,14,15,16,17,18,19,20,21,22,23,24,25,26,27,28,29,30,31,32,33,34,35,36,37"/>
  <line x1="935" x2="935" y1="21.5" y2="32.5" class="net_6,7,8,9,10,11,12,13,14,15,16,17,18,19,20,21,22,23,24,25,26,27,28,29,30,31,32,33,34,35,36,37"/>
  <circle cx="488" cy="63.5" r="2" style="fill:#000" class="net_6,7,8,9,10,11,12,13,14,15,16,17,18,19,20,21,22,23,24,25,26,27,28,29,30,31,32,33,34,35,36,37"/>
  <line x1="935" x2="980" y1="32.5" y2="32.5" class="net_6,7,8,9,10,11,12,13,14,15,16,17,18,19,20,21,22,23,24,25,26,27,28,29,30,31,32,33,34,35,36,37"/>
  <line x1="440" x2="488" y1="63.5" y2="63.5" class="net_6,7,8,9,10,11,12,13,14,15,16,17,18,19,20,21,22,23,24,25,26,27,28,29,30,31,32,33,34,35,36,37"/>
  <line x1="488" x2="488" y1="63.5" y2="127.5" class="net_6,7,8,9,10,11,12,13,14,15,16,17,18,19,20,21,22,23,24,25,26,27,28,29,30,31,32,33,34,35,36,37"/>
  <line x1="488" x2="519.5" y1="127.5" y2="127.5" class="net_6,7,8,9,10,11,12,13,14,15,16,17,18,19,20,21,22,23,24,25,26,27,28,29,30,31,32,33,34,35,36,37"/>
  <line x1="519.5" x2="519.5" y1="127.5" y2="115.5" class="net_6,7,8,9,10,11,12,13,14,15,16,17,18,19,20,21,22,23,24,25,26,27,28,29,30,31,32,33,34,35,36,37"/>
  <line x1="239" x2="311" y1="1273.5" y2="1273.5" class="net_310"/>
  <line x1="311" x2="311" y1="1273.5" y2="32.5" class="net_310"/>
  <line x1="311" x2="925" y1="32.5" y2="32.5" class="net_310"/>
  <line x1="925" x2="925" y1="32.5" y2="52.5" class="net_310"/>
  <circle cx="311" cy="1273.5" r="2" style="fill:#000" class="net_310"/>
  <line x1="925" x2="980" y1="52.5" y2="52.5" class="net_310"/>
  <line x1="239" x2="925" y1="1273.5" y2="1273.5" class="net_310"/>
  <line x1="925" x2="925" y1="1273.5" y2="1304.5" class="net_310"/>
  <line x1="925" x2="980" y1="1304.5" y2="1304.5" class="net_310"/>
  <line x1="239" x2="311" y1="1273.5" y2="1273.5" class="net_310"/>
  <line x1="311" x2="311" y1="1273.5" y2="1412.5" class="net_310"/>
  <line x1="311" x2="980" y1="1412.5" y2="1412.5" class="net_310"/>
  <line x1="239" x2="573" y1="1273.5" y2="1273.5" class="net_310"/>
  <line x1="573" x2="573" y1="1273.5" y2="1195.5" class="net_310"/>
  <line x1="573" x2="945" y1="1195.5" y2="1195.5" class="net_310"/>
  <line x1="945" x2="945" y1="1195.5" y2="1196.5" class="net_310"/>
  <circle cx="573" cy="1273.5" r="2" style="fill:#000" class="net_310"/>
  <line x1="945" x2="980" y1="1196.5" y2="1196.5" class="net_310"/>
  <line x1="239" x2="311" y1="1273.5" y2="1273.5" class="net_310"/>
  <line x1="311" x2="311" y1="1273.5" y2="974" class="net_310"/>
  <circle cx="311" cy="974" r="2" style="fill:#000" class="net_310"/>
  <line x1="311" x2="352.6666666666667" y1="974" y2="974" class="net_310"/>
  <line x1="239" x2="311" y1="1273.5" y2="1273.5" class="net_310"/>
  <line x1="311" x2="311" y1="1273.5" y2="148.5" class="net_310"/>
  <line x1="311" x2="593" y1="148.5" y2="148.5" class="net_310"/>
  <line x1="593" x2="593" y1="148.5" y2="404" class="net_310"/>
  <circle cx="311" cy="148.5" r="2" style="fill:#000" class="net_310"/>
  <line x1="593" x2="666" y1="404" y2="404" class="net_310"/>
  <line x1="541" x2="563" y1="421.5" y2="421.5" class="net_2"/>
  <line x1="563" x2="563" y1="421.5" y2="72.5" class="net_2"/>
  <circle cx="563" cy="421.5" r="2" style="fill:#000" class="net_2"/>
  <line x1="563" x2="980" y1="72.5" y2="72.5" class="net_2"/>
  <line x1="541" x2="563" y1="421.5" y2="421.5" class="net_2"/>
  <line x1="563" x2="563" y1="421.5" y2="1324.5" class="net_2"/>
  <circle cx="563" cy="1324.5" r="2" style="fill:#000" class="net_2"/>
  <line x1="563" x2="980" y1="1324.5" y2="1324.5" class="net_2"/>
  <line x1="541" x2="563" y1="421.5" y2="421.5" class="net_2"/>
  <line x1="563" x2="563" y1="421.5" y2="1432.5" class="net_2"/>
  <line x1="563" x2="980" y1="1432.5" y2="1432.5" class="net_2"/>
  <line x1="541" x2="563" y1="421.5" y2="421.5" class="net_2"/>
  <line x1="563" x2="563" y1="421.5" y2="1216.5" class="net_2"/>
  <circle cx="563" cy="1216.5" r="2" style="fill:#000" class="net_2"/>
  <line x1="563" x2="980" y1="1216.5" y2="1216.5" class="net_2"/>
  <line x1="541" x2="563" y1="421.5" y2="421.5" class="net_2"/>
  <line x1="563" x2="563" y1="421.5" y2="1080" class="net_2"/>
  <line x1="563" x2="860" y1="1080" y2="1080" class="net_2"/>
  <line x1="860" x2="860" y1="1080" y2="1131" class="net_2"/>
  <circle cx="563" cy="1080" r="2" style="fill:#000" class="net_2"/>
  <line x1="860" x2="885" y1="1131" y2="1131" class="net_2"/>
  <line x1="541" x2="563" y1="421.5" y2="421.5" class="net_2"/>
  <line x1="563" x2="563" y1="421.5" y2="464" class="net_2"/>
  <circle cx="563" cy="464" r="2" style="fill:#000" class="net_2"/>
  <line x1="563" x2="666" y1="464" y2="464" class="net_2"/>
  <line x1="915" x2="935" y1="1111" y2="1111" class="net_38,39,40,41,42,43,44,45,46,47,48,49,50,51,52,53,54,55,56,57,58,59,60,61,62,63,64,65,66,67,68,69"/>
  <line x1="935" x2="935" y1="1111" y2="1284.5" class="net_38,39,40,41,42,43,44,45,46,47,48,49,50,51,52,53,54,55,56,57,58,59,60,61,62,63,64,65,66,67,68,69"/>
  <circle cx="935" cy="1111" r="2" style="fill:#000" class="net_38,39,40,41,42,43,44,45,46,47,48,49,50,51,52,53,54,55,56,57,58,59,60,61,62,63,64,65,66,67,68,69"/>
  <line x1="935" x2="980" y1="1284.5" y2="1284.5" class="net_38,39,40,41,42,43,44,45,46,47,48,49,50,51,52,53,54,55,56,57,58,59,60,61,62,63,64,65,66,67,68,69"/>
  <line x1="915" x2="935" y1="1111" y2="1111" class="net_38,39,40,41,42,43,44,45,46,47,48,49,50,51,52,53,54,55,56,57,58,59,60,61,62,63,64,65,66,67,68,69"/>
  <line x1="935" x2="935" y1="1111" y2="1184.5" class="net_38,39,40,41,42,43,44,45,46,47,48,49,50,51,52,53,54,55,56,57,58,59,60,61,62,63,64,65,66,67,68,69"/>
  <line x1="935" x2="750" y1="1184.5" y2="1184.5" class="net_38,39,40,41,42,43,44,45,46,47,48,49,50,51,52,53,54,55,56,57,58,59,60,61,62,63,64,65,66,67,68,69"/>
  <line x1="750" x2="750" y1="1184.5" y2="1111" class="net_38,39,40,41,42,43,44,45,46,47,48,49,50,51,52,53,54,55,56,57,58,59,60,61,62,63,64,65,66,67,68,69"/>
  <circle cx="935" cy="1184.5" r="2" style="fill:#000" class="net_38,39,40,41,42,43,44,45,46,47,48,49,50,51,52,53,54,55,56,57,58,59,60,61,62,63,64,65,66,67,68,69"/>
  <line x1="750" x2="775" y1="1111" y2="1111" class="net_38,39,40,41,42,43,44,45,46,47,48,49,50,51,52,53,54,55,56,57,58,59,60,61,62,63,64,65,66,67,68,69"/>
  <line x1="915" x2="935" y1="1111" y2="1111" class="net_38,39,40,41,42,43,44,45,46,47,48,49,50,51,52,53,54,55,56,57,58,59,60,61,62,63,64,65,66,67,68,69"/>
  <line x1="935" x2="935" y1="1111" y2="1206.5" class="net_38,39,40,41,42,43,44,45,46,47,48,49,50,51,52,53,54,55,56,57,58,59,60,61,62,63,64,65,66,67,68,69"/>
  <line x1="935" x2="805" y1="1206.5" y2="1206.5" class="net_38,39,40,41,42,43,44,45,46,47,48,49,50,51,52,53,54,55,56,57,58,59,60,61,62,63,64,65,66,67,68,69"/>
  <line x1="805" x2="805" y1="1206.5" y2="1101" class="net_38,39,40,41,42,43,44,45,46,47,48,49,50,51,52,53,54,55,56,57,58,59,60,61,62,63,64,65,66,67,68,69"/>
  <circle cx="935" cy="1206.5" r="2" style="fill:#000" class="net_38,39,40,41,42,43,44,45,46,47,48,49,50,51,52,53,54,55,56,57,58,59,60,61,62,63,64,65,66,67,68,69"/>
  <line x1="805" x2="830" y1="1101" y2="1101" class="net_38,39,40,41,42,43,44,45,46,47,48,49,50,51,52,53,54,55,56,57,58,59,60,61,62,63,64,65,66,67,68,69"/>
  <line x1="915" x2="980" y1="1111" y2="1111" class="net_38,39,40,41,42,43,44,45,46,47,48,49,50,51,52,53,54,55,56,57,58,59,60,61,62,63,64,65,66,67,68,69"/>
  <line x1="237" x2="980" y1="1392.5" y2="1392.5" class="net_74,75,76,77,78,79,80,81,82,83,84,85,86,87,88,89,90,91,92,93,94,95,96,97,98,99,100,101,102,103,104,105"/>
  <line x1="237" x2="301" y1="1392.5" y2="1392.5" class="net_74,75,76,77,78,79,80,81,82,83,84,85,86,87,88,89,90,91,92,93,94,95,96,97,98,99,100,101,102,103,104,105"/>
  <line x1="301" x2="301" y1="1392.5" y2="249.5" class="net_74,75,76,77,78,79,80,81,82,83,84,85,86,87,88,89,90,91,92,93,94,95,96,97,98,99,100,101,102,103,104,105"/>
  <line x1="301" x2="353.5" y1="249.5" y2="249.5" class="net_74,75,76,77,78,79,80,81,82,83,84,85,86,87,88,89,90,91,92,93,94,95,96,97,98,99,100,101,102,103,104,105"/>
  <circle cx="301" cy="1392.5" r="2" style="fill:#000" class="net_74,75,76,77,78,79,80,81,82,83,84,85,86,87,88,89,90,91,92,93,94,95,96,97,98,99,100,101,102,103,104,105"/>
  <line x1="353.5" x2="353.5" y1="249.5" y2="226.5" class="net_74,75,76,77,78,79,80,81,82,83,84,85,86,87,88,89,90,91,92,93,94,95,96,97,98,99,100,101,102,103,104,105"/>
  <line x1="118" x2="184" y1="129.5" y2="129.5" class="net_106,107,108,109,110,111,112,113,114,115,116,117,118,119,120,121,122,123,124,125,126,127,128,129,130,131,132,133,134,135,136,137"/>
  <line x1="184" x2="184" y1="129.5" y2="83.5" class="net_106,107,108,109,110,111,112,113,114,115,116,117,118,119,120,121,122,123,124,125,126,127,128,129,130,131,132,133,134,135,136,137"/>
  <line x1="184" x2="945" y1="83.5" y2="83.5" class="net_106,107,108,109,110,111,112,113,114,115,116,117,118,119,120,121,122,123,124,125,126,127,128,129,130,131,132,133,134,135,136,137"/>
  <line x1="945" x2="945" y1="83.5" y2="1176.5" class="net_106,107,108,109,110,111,112,113,114,115,116,117,118,119,120,121,122,123,124,125,126,127,128,129,130,131,132,133,134,135,136,137"/>
  <circle cx="184" cy="129.5" r="2" style="fill:#000" class="net_106,107,108,109,110,111,112,113,114,115,116,117,118,119,120,121,122,123,124,125,126,127,128,129,130,131,132,133,134,135,136,137"/>
  <line x1="945" x2="980" y1="1176.5" y2="1176.5" class="net_106,107,108,109,110,111,112,113,114,115,116,117,118,119,120,121,122,123,124,125,126,127,128,129,130,131,132,133,134,135,136,137"/>
  <line x1="118" x2="234.5" y1="129.5" y2="129.5" class="net_106,107,108,109,110,111,112,113,114,115,116,117,118,119,120,121,122,123,124,125,126,127,128,129,130,131,132,133,134,135,136,137"/>
  <line x1="234.5" x2="234.5" y1="129.5" y2="117.5" class="net_106,107,108,109,110,111,112,113,114,115,116,117,118,119,120,121,122,123,124,125,126,127,128,129,130,131,132,133,134,135,136,137"/>
  <line x1="850" x2="885" y1="1111" y2="1111" class="net_138,139,140,141,142,143,144,145,146,147,148,149,150,151,152,153,154,155,156,157,158,159,160,161,162,163,164,165,166,167,168,169"/>
  <line x1="239" x2="321" y1="159.5" y2="159.5" class="net_314"/>
  <line x1="321" x2="321" y1="159.5" y2="1024" class="net_314"/>
  <circle cx="321" cy="159.5" r="2" style="fill:#000" class="net_314"/>
  <line x1="321" x2="427.3333333333333" y1="1024" y2="1024" class="net_314"/>
  <line x1="239" x2="321" y1="159.5" y2="159.5" class="net_314"/>
  <line x1="321" x2="321" y1="159.5" y2="954" class="net_314"/>
  <circle cx="321" cy="954" r="2" style="fill:#000" class="net_314"/>
  <line x1="321" x2="352.6666666666667" y1="954" y2="954" class="net_314"/>
  <line x1="239" x2="321" y1="159.5" y2="159.5" class="net_314"/>
  <line x1="321" x2="321" y1="159.5" y2="137.5" class="net_314"/>
  <line x1="321" x2="603" y1="137.5" y2="137.5" class="net_314"/>
  <line x1="603" x2="603" y1="137.5" y2="364" class="net_314"/>
  <line x1="603" x2="666" y1="364" y2="364" class="net_314"/>
  <line x1="239" x2="583" y1="159.5" y2="159.5" class="net_314"/>
  <line x1="583" x2="583" y1="159.5" y2="424" class="net_314"/>
  <line x1="583" x2="666" y1="424" y2="424" class="net_314"/>
  <line x1="372.6666666666667" x2="397" y1="964" y2="964" class="net_170"/>
  <line x1="397" x2="397" y1="964" y2="1044" class="net_170"/>
  <line x1="397" x2="427.3333333333333" y1="1044" y2="1044" class="net_170"/>
  <line x1="369" x2="387" y1="391.5" y2="391.5" class="net_3"/>
  <line x1="387" x2="387" y1="391.5" y2="1064" class="net_3"/>
  <line x1="387" x2="437.3333333333333" y1="1064" y2="1064" class="net_3"/>
  <circle cx="387" cy="391.5" r="2" style="fill:#000" class="net_3"/>
  <circle cx="387" cy="1064" r="2" style="fill:#000" class="net_3"/>
  <line x1="437.3333333333333" x2="437.3333333333333" y1="1064" y2="1049" class="net_3"/>
  <line x1="369" x2="526.3333333333333" y1="391.5" y2="391.5" class="net_3"/>
  <line x1="526.3333333333333" x2="526.3333333333333" y1="391.5" y2="312" class="net_3"/>
  <line x1="369" x2="387" y1="391.5" y2="391.5" class="net_3"/>
  <line x1="387" x2="387" y1="391.5" y2="248.5" class="net_3"/>
  <line x1="387" x2="526.3333333333333" y1="248.5" y2="248.5" class="net_3"/>
  <line x1="526.3333333333333" x2="526.3333333333333" y1="248.5" y2="211" class="net_3"/>
  <line x1="369" x2="387" y1="391.5" y2="391.5" class="net_3"/>
  <line x1="387" x2="387" y1="391.5" y2="1173.5" class="net_3"/>
  <line x1="387" x2="840" y1="1173.5" y2="1173.5" class="net_3"/>
  <line x1="840" x2="840" y1="1173.5" y2="1126" class="net_3"/>
  <line x1="397" x2="488" y1="259.5" y2="287" class="net_x,x,x,x,x,x,x,x,x,x,x,x,x,x,x,x,x,x,x,x,x,x,x,x,x,x,x,x,x,x,x,x"/>
  <line x1="488" x2="516.3333333333333" y1="287" y2="287" class="net_x,x,x,x,x,x,x,x,x,x,x,x,x,x,x,x,x,x,x,x,x,x,x,x,x,x,x,x,x,x,x,x"/>
  <line x1="397" x2="397" y1="259.5" y2="297" class="net_x,x,x,x,x,x,x,x,x,x,x,x,x,x,x,x,x,x,x,x,x,x,x,x,x,x,x,x,x,x,x,x"/>
  <line x1="397" x2="427.3333333333333" y1="297" y2="297" class="net_x,x,x,x,x,x,x,x,x,x,x,x,x,x,x,x,x,x,x,x,x,x,x,x,x,x,x,x,x,x,x,x"/>
  <line x1="447.3333333333333" x2="516.3333333333333" y1="307" y2="307" class="net_172,173,174,175,176,177,178,179,180,181,182,183,184,185,186,187,188,189,190,191,192,193,194,195,196,197,198,199,200,201,202,203"/>
  <line x1="387" x2="488" y1="170.5" y2="186" class="net_x,x,x,x,x"/>
  <line x1="488" x2="516.3333333333333" y1="186" y2="186" class="net_x,x,x,x,x"/>
  <line x1="387" x2="387" y1="170.5" y2="196" class="net_x,x,x,x,x"/>
  <line x1="387" x2="427.3333333333333" y1="196" y2="196" class="net_x,x,x,x,x"/>
  <line x1="447.3333333333333" x2="516.3333333333333" y1="206" y2="206" class="net_236,237,238,239,240"/>
  <line x1="697" x2="760" y1="344" y2="344" class="net_246,247,248,249,250,251,252,253,254,255,256,257,258,259,260,261,262,263,264,265,266,267,268,269,270,271,272,273,274,275,276,277"/>
  <line x1="760" x2="760" y1="344" y2="1131" class="net_246,247,248,249,250,251,252,253,254,255,256,257,258,259,260,261,262,263,264,265,266,267,268,269,270,271,272,273,274,275,276,277"/>
  <line x1="760" x2="775" y1="1131" y2="1131" class="net_246,247,248,249,250,251,252,253,254,255,256,257,258,259,260,261,262,263,264,265,266,267,268,269,270,271,272,273,274,275,276,277"/>
  <line x1="690" x2="785" y1="1304.5" y2="1304.5" class="net_5"/>
  <line x1="785" x2="785" y1="1304.5" y2="1136" class="net_5"/>
  <line x1="795" x2="830" y1="1121" y2="1121" class="net_278,279,280,281,282,283,284,285,286,287,288,289,290,291,292,293,294,295,296,297,298,299,300,301,302,303,304,305,306,307,308,309"/>
  <line x1="239" x2="362.6666666666667" y1="994" y2="994" class="net_73"/>
  <line x1="362.6666666666667" x2="362.6666666666667" y1="994" y2="979" class="net_73"/>
  <line x1="239" x2="331" y1="994" y2="994" class="net_73"/>
  <line x1="331" x2="331" y1="994" y2="1004" class="net_73"/>
  <line x1="331" x2="437.3333333333333" y1="1004" y2="1004" class="net_73"/>
  <circle cx="331" cy="994" r="2" style="fill:#000" class="net_73"/>
  <line x1="437.3333333333333" x2="437.3333333333333" y1="1004" y2="322" class="net_73"/>
  <line x1="239" x2="331" y1="994" y2="994" class="net_73"/>
  <line x1="331" x2="331" y1="994" y2="238.5" class="net_73"/>
  <line x1="331" x2="437.3333333333333" y1="238.5" y2="238.5" class="net_73"/>
  <line x1="437.3333333333333" x2="437.3333333333333" y1="238.5" y2="221" class="net_73"/>
  <line x1="366" x2="427.3333333333333" y1="317" y2="317" class="net_130,131,132,133,134,135,136,137,317,318,319,320,321,322,323,324,325,326,327,328,329,330,331,332,333,334,335,336,337,338,339,340"/>
  <line x1="358" x2="427.3333333333333" y1="216" y2="216" class="net_74,75,76,77,78"/>
  <line x1="524" x2="613" y1="105" y2="105" class="net_6,7,8,9,10"/>
  <line x1="613" x2="613" y1="105" y2="344" class="net_6,7,8,9,10"/>
  <line x1="613" x2="666" y1="344" y2="344" class="net_6,7,8,9,10"/>
  <line x1="536.3333333333333" x2="573" y1="196" y2="196" class="net_241,242,243,244,245"/>
  <line x1="573" x2="573" y1="196" y2="444" class="net_241,242,243,244,245"/>
  <line x1="573" x2="666" y1="444" y2="444" class="net_241,242,243,244,245"/>
  <line x1="536.3333333333333" x2="553" y1="297" y2="297" class="net_204,205,206,207,208,209,210,211,212,213,214,215,216,217,218,219,220,221,222,223,224,225,226,227,228,229,230,231,232,233,234,235"/>
  <line x1="553" x2="553" y1="297" y2="484" class="net_204,205,206,207,208,209,210,211,212,213,214,215,216,217,218,219,220,221,222,223,224,225,226,227,228,229,230,231,232,233,234,235"/>
  <line x1="553" x2="666" y1="484" y2="484" class="net_204,205,206,207,208,209,210,211,212,213,214,215,216,217,218,219,220,221,222,223,224,225,226,227,228,229,230,231,232,233,234,235"/>
  <line x1="520.04" x2="666" y1="504" y2="504" class="net_171,171,171,171,171,171,171,171,171,171,171,171,171,171,171,171,171,171,171,171,171,171,171,171,171,171,171,171,171,171,171,171"/>
  <line x1="239" x2="291" y1="107" y2="107" class="net_130,131,132,133,134,135,136,137"/>
  <line x1="291" x2="291" y1="107" y2="307" class="net_130,131,132,133,134,135,136,137"/>
  <line x1="291" x2="360" y1="307" y2="307" class="net_130,131,132,133,134,135,136,137"/>
  <line x1="239" x2="360" y1="327" y2="327" class="net_317,318,319,320,321,322,323,324,325,326,327,328,329,330,331,332,333,334,335,336,337,338,339,340"/>
  <line x1="447.3333333333333" x2="488" y1="1034" y2="1034" class="net_171"/>
  <line x1="488" x2="488" y1="1034" y2="471.5" class="net_171"/>
  <line x1="488" x2="514.54" y1="471.5" y2="471.5" class="net_171"/>
  <circle cx="488" cy="1034" r="2" style="fill:#000" class="net_171"/>
  <circle cx="488" cy="471.5" r="2" style="fill:#000" class="net_171"/>
  <line x1="514.54" x2="514.54" y1="471.5" y2="493.5" class="net_171"/>
  <line x1="447.3333333333333" x2="488" y1="1034" y2="1034" class="net_171"/>
  <line x1="488" x2="488" y1="1034" y2="461.5" class="net_171"/>
  <line x1="488" x2="514.54" y1="461.5" y2="461.5" class="net_171"/>
  <circle cx="488" cy="461.5" r="2" style="fill:#000" class="net_171"/>
  <line x1="514.54" x2="514.54" y1="461.5" y2="513.5" class="net_171"/>
  <line x1="447.3333333333333" x2="488" y1="1034" y2="1034" class="net_171"/>
  <line x1="488" x2="488" y1="1034" y2="451.5" class="net_171"/>
  <line x1="488" x2="514.54" y1="451.5" y2="451.5" class="net_171"/>
  <circle cx="488" cy="451.5" r="2" style="fill:#000" class="net_171"/>
  <line x1="514.54" x2="514.54" y1="451.5" y2="533.5" class="net_171"/>
  <line x1="447.3333333333333" x2="488" y1="1034" y2="1034" class="net_171"/>
  <line x1="488" x2="488" y1="1034" y2="441.5" class="net_171"/>
  <line x1="488" x2="514.54" y1="441.5" y2="441.5" class="net_171"/>
  <line x1="514.54" x2="514.54" y1="441.5" y2="553.5" class="net_171"/>
  <line x1="447.3333333333333" x2="488" y1="1034" y2="1034" class="net_171"/>
  <line x1="488" x2="488" y1="1034" y2="574" class="net_171"/>
  <circle cx="488" cy="574" r="2" style="fill:#000" class="net_171"/>
  <line x1="488" x2="514.04" y1="574" y2="574" class="net_171"/>
  <line x1="447.3333333333333" x2="488" y1="1034" y2="1034" class="net_171"/>
  <line x1="488" x2="488" y1="1034" y2="594" class="net_171"/>
  <circle cx="488" cy="594" r="2" style="fill:#000" class="net_171"/>
  <line x1="488" x2="514.04" y1="594" y2="594" class="net_171"/>
  <line x1="447.3333333333333" x2="488" y1="1034" y2="1034" class="net_171"/>
  <line x1="488" x2="488" y1="1034" y2="614" class="net_171"/>
  <circle cx="488" cy="614" r="2" style="fill:#000" class="net_171"/>
  <line x1="488" x2="514.04" y1="614" y2="614" class="net_171"/>
  <line x1="447.3333333333333" x2="488" y1="1034" y2="1034" class="net_171"/>
  <line x1="488" x2="488" y1="1034" y2="634" class="net_171"/>
  <circle cx="488" cy="634" r="2" style="fill:#000" class="net_171"/>
  <line x1="488" x2="514.04" y1="634" y2="634" class="net_171"/>
  <line x1="447.3333333333333" x2="488" y1="1034" y2="1034" class="net_171"/>
  <line x1="488" x2="488" y1="1034" y2="654" class="net_171"/>
  <circle cx="488" cy="654" r="2" style="fill:#000" class="net_171"/>
  <line x1="488" x2="514.04" y1="654" y2="654" class="net_171"/>
  <line x1="447.3333333333333" x2="488" y1="1034" y2="1034" class="net_171"/>
  <line x1="488" x2="488" y1="1034" y2="674" class="net_171"/>
  <circle cx="488" cy="674" r="2" style="fill:#000" class="net_171"/>
  <line x1="488" x2="514.04" y1="674" y2="674" class="net_171"/>
  <line x1="447.3333333333333" x2="488" y1="1034" y2="1034" class="net_171"/>
  <line x1="488" x2="488" y1="1034" y2="694" class="net_171"/>
  <circle cx="488" cy="694" r="2" style="fill:#000" class="net_171"/>
  <line x1="488" x2="514.04" y1="694" y2="694" class="net_171"/>
  <line x1="447.3333333333333" x2="488" y1="1034" y2="1034" class="net_171"/>
  <line x1="488" x2="488" y1="1034" y2="714" class="net_171"/>
  <circle cx="488" cy="714" r="2" style="fill:#000" class="net_171"/>
  <line x1="488" x2="514.04" y1="714" y2="714" class="net_171"/>
  <line x1="447.3333333333333" x2="488" y1="1034" y2="1034" class="net_171"/>
  <line x1="488" x2="488" y1="1034" y2="734" class="net_171"/>
  <circle cx="488" cy="734" r="2" style="fill:#000" class="net_171"/>
  <line x1="488" x2="514.04" y1="734" y2="734" class="net_171"/>
  <line x1="447.3333333333333" x2="488" y1="1034" y2="1034" class="net_171"/>
  <line x1="488" x2="488" y1="1034" y2="754" class="net_171"/>
  <circle cx="488" cy="754" r="2" style="fill:#000" class="net_171"/>
  <line x1="488" x2="514.04" y1="754" y2="754" class="net_171"/>
  <line x1="447.3333333333333" x2="488" y1="1034" y2="1034" class="net_171"/>
  <line x1="488" x2="488" y1="1034" y2="774" class="net_171"/>
  <circle cx="488" cy="774" r="2" style="fill:#000" class="net_171"/>
  <line x1="488" x2="514.04" y1="774" y2="774" class="net_171"/>
  <line x1="447.3333333333333" x2="488" y1="1034" y2="1034" class="net_171"/>
  <line x1="488" x2="488" y1="1034" y2="794" class="net_171"/>
  <circle cx="488" cy="794" r="2" style="fill:#000" class="net_171"/>
  <line x1="488" x2="514.04" y1="794" y2="794" class="net_171"/>
  <line x1="447.3333333333333" x2="488" y1="1034" y2="1034" class="net_171"/>
  <line x1="488" x2="488" y1="1034" y2="814" class="net_171"/>
  <circle cx="488" cy="814" r="2" style="fill:#000" class="net_171"/>
  <line x1="488" x2="514.04" y1="814" y2="814" class="net_171"/>
  <line x1="447.3333333333333" x2="488" y1="1034" y2="1034" class="net_171"/>
  <line x1="488" x2="488" y1="1034" y2="834" class="net_171"/>
  <circle cx="488" cy="834" r="2" style="fill:#000" class="net_171"/>
  <line x1="488" x2="514.04" y1="834" y2="834" class="net_171"/>
  <line x1="447.3333333333333" x2="488" y1="1034" y2="1034" class="net_171"/>
  <line x1="488" x2="488" y1="1034" y2="854" class="net_171"/>
  <circle cx="488" cy="854" r="2" style="fill:#000" class="net_171"/>
  <line x1="488" x2="514.04" y1="854" y2="854" class="net_171"/>
  <line x1="447.3333333333333" x2="488" y1="1034" y2="1034" class="net_171"/>
  <line x1="488" x2="488" y1="1034" y2="874" class="net_171"/>
  <circle cx="488" cy="874" r="2" style="fill:#000" class="net_171"/>
  <line x1="488" x2="514.04" y1="874" y2="874" class="net_171"/>
  <line x1="447.3333333333333" x2="488" y1="1034" y2="1034" class="net_171"/>
  <line x1="488" x2="488" y1="1034" y2="894" class="net_171"/>
  <circle cx="488" cy="894" r="2" style="fill:#000" class="net_171"/>
  <line x1="488" x2="514.04" y1="894" y2="894" class="net_171"/>
  <line x1="447.3333333333333" x2="488" y1="1034" y2="1034" class="net_171"/>
  <line x1="488" x2="488" y1="1034" y2="914" class="net_171"/>
  <circle cx="488" cy="914" r="2" style="fill:#000" class="net_171"/>
  <line x1="488" x2="514.04" y1="914" y2="914" class="net_171"/>
  <line x1="447.3333333333333" x2="488" y1="1034" y2="1034" class="net_171"/>
  <line x1="488" x2="488" y1="1034" y2="934" class="net_171"/>
  <circle cx="488" cy="934" r="2" style="fill:#000" class="net_171"/>
  <line x1="488" x2="514.04" y1="934" y2="934" class="net_171"/>
  <line x1="447.3333333333333" x2="488" y1="1034" y2="1034" class="net_171"/>
  <line x1="488" x2="488" y1="1034" y2="954" class="net_171"/>
  <circle cx="488" cy="954" r="2" style="fill:#000" class="net_171"/>
  <line x1="488" x2="514.04" y1="954" y2="954" class="net_171"/>
  <line x1="447.3333333333333" x2="488" y1="1034" y2="1034" class="net_171"/>
  <line x1="488" x2="488" y1="1034" y2="974" class="net_171"/>
  <circle cx="488" cy="974" r="2" style="fill:#000" class="net_171"/>
  <line x1="488" x2="514.04" y1="974" y2="974" class="net_171"/>
  <line x1="447.3333333333333" x2="488" y1="1034" y2="1034" class="net_171"/>
  <line x1="488" x2="488" y1="1034" y2="994" class="net_171"/>
  <circle cx="488" cy="994" r="2" style="fill:#000" class="net_171"/>
  <line x1="488" x2="514.04" y1="994" y2="994" class="net_171"/>
  <line x1="447.3333333333333" x2="488" y1="1034" y2="1034" class="net_171"/>
  <line x1="488" x2="488" y1="1034" y2="1014" class="net_171"/>
  <circle cx="488" cy="1014" r="2" style="fill:#000" class="net_171"/>
  <line x1="488" x2="514.04" y1="1014" y2="1014" class="net_171"/>
  <line x1="447.3333333333333" x2="514.04" y1="1034" y2="1034" class="net_171"/>
  <line x1="447.3333333333333" x2="488" y1="1034" y2="1034" class="net_171"/>
  <line x1="488" x2="488" y1="1034" y2="1163.5" class="net_171"/>
  <line x1="488" x2="514.54" y1="1163.5" y2="1163.5" class="net_171"/>
  <line x1="514.54" x2="514.54" y1="1163.5" y2="1054.5" class="net_171"/>
  <line x1="447.3333333333333" x2="488" y1="1034" y2="1034" class="net_171"/>
  <line x1="488" x2="488" y1="1034" y2="1153.5" class="net_171"/>
  <line x1="488" x2="514.54" y1="1153.5" y2="1153.5" class="net_171"/>
  <circle cx="488" cy="1153.5" r="2" style="fill:#000" class="net_171"/>
  <line x1="514.54" x2="514.54" y1="1153.5" y2="1074.5" class="net_171"/>
  <line x1="447.3333333333333" x2="488" y1="1034" y2="1034" class="net_171"/>
  <line x1="488" x2="488" y1="1034" y2="1143.5" class="net_171"/>
  <line x1="488" x2="514.54" y1="1143.5" y2="1143.5" class="net_171"/>
  <circle cx="488" cy="1143.5" r="2" style="fill:#000" class="net_171"/>
  <line x1="514.54" x2="514.54" y1="1143.5" y2="1094.5" class="net_171"/>
  <line x1="447.3333333333333" x2="488" y1="1034" y2="1034" class="net_171"/>
  <line x1="488" x2="488" y1="1034" y2="1133.5" class="net_171"/>
  <line x1="488" x2="514.54" y1="1133.5" y2="1133.5" class="net_171"/>
  <circle cx="488" cy="1133.5" r="2" style="fill:#000" class="net_171"/>
  <line x1="514.54" x2="514.54" y1="1133.5" y2="1114.5" class="net_171"/>
  <line x1="118" x2="234.5" y1="1243.5" y2="1243.5" class="net_70,71,72,73"/>
  <line x1="234.5" x2="234.5" y1="1243.5" y2="1004.5" class="net_70,71,72,73"/>
</svg>
