<svg xmlns="http://www.w3.org/2000/svg" xmlns:xlink="http://www.w3.org/1999/xlink" xmlns:s="https://github.com/nturley/netlistsvg" width="162" height="184">
  <style>svg {
    stroke:#000;
    fill:none;
  }
  text {
    fill:#000;
    stroke:none;
    font-size:10px;
    font-weight: bold;
    font-family: "Courier New", monospace;
  }
  .nodelabel {
    text-anchor: middle;
  }
  .inputPortLabel {
    text-anchor: end;
  }
  .splitjoinBody {
    fill:#000;
  }</style>
  <g s:type="generic" transform="translate(120,66.5)" s:width="30" s:height="40" id="cell_u_ram">
    <text x="15" y="-4" class="nodelabel cell_u_ram" s:attribute="ref">ram</text>
    <rect width="30" height="60" s:generic="body" class="cell_u_ram"/>
    <g transform="translate(0,10)" s:x="0" s:y="10" s:pid="in0" id="port_u_ram~clk">
      <text x="-3" y="-4" class="inputPortLabel cell_u_ram">clk</text>
    </g>
    <g transform="translate(0,30)" s:x="0" s:y="10" s:pid="in0" id="port_u_ram~clk_en">
      <text x="-3" y="-4" class="inputPortLabel cell_u_ram">clk_en</text>
    </g>
    <g transform="translate(0,50)" s:x="0" s:y="10" s:pid="in0" id="port_u_ram~rst">
      <text x="-3" y="-4" class="inputPortLabel cell_u_ram">rst</text>
    </g>
  </g>
  <g s:type="inputExt" transform="translate(12,22)" s:width="30" s:height="20" id="cell_clk">
    <text x="15" y="-4" class="nodelabel cell_clk" s:attribute="ref">clk</text>
    <s:alias val="$_inputExt_"/>
    <path d="M0,0 L0,20 L15,20 L30,10 L15,0 Z" class="cell_clk"/>
    <g s:x="28" s:y="10" s:pid="Y"/>
  </g>
  <g s:type="inputExt" transform="translate(12,87)" s:width="30" s:height="20" id="cell_clk_en">
    <text x="15" y="-4" class="nodelabel cell_clk_en" s:attribute="ref">clk_en</text>
    <s:alias val="$_inputExt_"/>
    <path d="M0,0 L0,20 L15,20 L30,10 L15,0 Z" class="cell_clk_en"/>
    <g s:x="28" s:y="10" s:pid="Y"/>
  </g>
  <g s:type="inputExt" transform="translate(12,152)" s:width="30" s:height="20" id="cell_rst">
    <text x="15" y="-4" class="nodelabel cell_rst" s:attribute="ref">rst</text>
    <s:alias val="$_inputExt_"/>
    <path d="M0,0 L0,20 L15,20 L30,10 L15,0 Z" class="cell_rst"/>
    <g s:x="28" s:y="10" s:pid="Y"/>
  </g>
  <line x1="40" x2="58" y1="32" y2="32" class="net_2"/>
  <line x1="58" x2="58" y1="32" y2="77" class="net_2"/>
  <line x1="58" x2="120" y1="77" y2="77" class="net_2"/>
  <line x1="40" x2="120" y1="97" y2="97" class="net_3"/>
  <line x1="40" x2="58" y1="162" y2="162" class="net_4"/>
  <line x1="58" x2="58" y1="162" y2="117" class="net_4"/>
  <line x1="58" x2="120" y1="117" y2="117" class="net_4"/>
</svg>
